<?xml version="1.0" encoding="iso-8859-1"?>
<!-- Generator: Adobe Illustrator 19.0.0, SVG Export Plug-In . SVG Version: 6.00 Build 0)  -->
<svg version="1.1" id="Capa_1" xmlns="http://www.w3.org/2000/svg" xmlns:xlink="http://www.w3.org/1999/xlink" x="0px" y="0px"
	 viewBox="0 0 512 512" style="enable-background:new 0 0 512 512;" xml:space="preserve">
<g>
	<g>
		<path d="M153.281,448.644L512,89.925L422.075,0L65.468,356.607l-2.112,2.111L12.497,481.763H0.169v29.828L0,512l0.641-0.266
			h436.104v-29.971H73.153L153.281,448.644z M422.075,42.385l47.54,47.54l-45.983,45.984l-47.54-47.54L422.075,42.385z
			 M354.899,109.561l47.54,47.54l-22.546,22.546l-47.54-47.54L354.899,109.561z M311.16,153.301l47.541,47.539L153.387,406.152
			l-47.54-47.539L311.16,153.301z M86.364,381.513l44.122,44.122l-75.208,31.086L86.364,381.513z"/>
	</g>
</g>
<g>
	<g>
		<rect x="270.908" y="412.361" width="160.844" height="29.971"/>
	</g>
</g>
<g>
</g>
<g>
</g>
<g>
</g>
<g>
</g>
<g>
</g>
<g>
</g>
<g>
</g>
<g>
</g>
<g>
</g>
<g>
</g>
<g>
</g>
<g>
</g>
<g>
</g>
<g>
</g>
<g>
</g>
</svg>
